<svg xmlns="http://www.w3.org/2000/svg" width="36" height="36"><path d="M0 0h36v36H0z" fill="none"/><path d="M7.5 23.571V18H12v-3.714H7.5V8.714h-3v5.571H0V18h4.5v5.571zM18 21.25c-3.51 0-10.5 2.173-10.5 6.5V31h21v-3.25c0-4.327-6.99-6.5-10.5-6.5zm-6.99 6.036A12.441 12.441 0 0118 24.964a12.441 12.441 0 016.99 2.321zM18 18c2.9 0 5.25-2.916 5.25-6.5S20.9 5 18 5s-5.25 2.916-5.25 6.5S15.1 18 18 18zm0-9.286a2.558 2.558 0 012.25 2.786A2.558 2.558 0 0118 14.286a2.558 2.558 0 01-2.25-2.786A2.558 2.558 0 0118 8.714zM25.5 18c2.9 0 5.25-2.916 5.25-6.5S28.4 5 25.5 5a4.1 4.1 0 00-1.065.13 11.653 11.653 0 011.815 6.37 11.606 11.606 0 01-1.845 6.351A4.346 4.346 0 0025.5 18zm3.48 3.751a8.255 8.255 0 012.52 6V31H36v-3.25c0-3.139-3.66-5.126-7.02-5.999z" fill="#fa776d"/></svg>