<svg xmlns="http://www.w3.org/2000/svg" width="36" height="36" viewBox="0 0 36 36"><defs><style>.a{fill:none;}.b{fill:#fa776d;}</style></defs><path class="a" d="M0,0H36V36H0Z"/><path class="b" d="M7.5,23.571V18H12V14.286H7.5V8.714h-3v5.571H0V18H4.5v5.571ZM18,21.25c-3.51,0-10.5,2.173-10.5,6.5V31h21V27.75C28.5,23.423,21.51,21.25,18,21.25Zm-6.99,6.036A12.441,12.441,0,0,1,18,24.964a12.441,12.441,0,0,1,6.99,2.321ZM18,18c2.9,0,5.25-2.916,5.25-6.5S20.9,5,18,5s-5.25,2.916-5.25,6.5S15.1,18,18,18Zm0-9.286A2.558,2.558,0,0,1,20.25,11.5,2.558,2.558,0,0,1,18,14.286,2.558,2.558,0,0,1,15.75,11.5,2.558,2.558,0,0,1,18,8.714ZM25.5,18c2.9,0,5.25-2.916,5.25-6.5S28.4,5,25.5,5a4.1,4.1,0,0,0-1.065.13A11.653,11.653,0,0,1,26.25,11.5a11.606,11.606,0,0,1-1.845,6.351A4.346,4.346,0,0,0,25.5,18Zm3.48,3.751a8.255,8.255,0,0,1,2.52,6V31H36V27.75C36,24.611,32.34,22.624,28.98,21.751Z" transform="translate(0 0)"/></svg>