<svg xmlns="http://www.w3.org/2000/svg" width="36" height="36" viewBox="0 0 36 36"><defs><style>.a{fill:none;}.b{fill:#fa776d;}</style></defs><path class="a" d="M0,0H36V36H0Z"/><path class="b" d="M27.143,30.857h-22v-22H19.286V5.714H5.143A3.152,3.152,0,0,0,2,8.857v22A3.152,3.152,0,0,0,5.143,34h22a3.152,3.152,0,0,0,3.143-3.143V16.714H27.143ZM14.9,25.876l-3.08-3.709L7.5,27.714H24.786l-5.563-7.4ZM30.286,5.714V1H27.143V5.714H22.429c.016.016,0,3.143,0,3.143h4.714v4.7c.016.016,3.143,0,3.143,0v-4.7H35V5.714Z" transform="translate(0 0)"/></svg>