<svg xmlns="http://www.w3.org/2000/svg" width="40" height="45" viewBox="0 0 40 45"><defs><style>.a{fill:none;}.b{fill:#fa776d;}</style></defs><g transform="translate(-466 -3632)"><path class="a" d="M0,0H36V36H0Z" transform="translate(470 3641)"/><path class="b" d="M29.667,4.2H28V1H24.667V4.2H11.333V1H8V4.2H6.333A3.278,3.278,0,0,0,3,7.4V29.8A3.278,3.278,0,0,0,6.333,33H29.667A3.278,3.278,0,0,0,33,29.8V7.4A3.278,3.278,0,0,0,29.667,4.2Zm0,25.6H6.333v-16H29.667ZM6.333,10.6V7.4H29.667v3.2ZM15.6,27.336l9.883-9.488-1.767-1.7L15.6,23.944l-3.517-3.376-1.767,1.7Z" transform="translate(463 3631)"/></g></svg>